<?xml version="1.0" standalone="no"?>
<!DOCTYPE svg PUBLIC "-//W3C//DTD SVG 20010904//EN"
 "http://www.w3.org/TR/2001/REC-SVG-20010904/DTD/svg10.dtd">
<svg version="1.0" xmlns="http://www.w3.org/2000/svg"
 width="500" height="120" viewBox="0 0 1600.000000 1599.000000"
 preserveAspectRatio="xMidYMid meet">

<g transform="translate(0.000000,1599.000000) scale(0.100000,-0.100000)"
fill="#000000" stroke="none">
<path d="M7690 15984 c-954 -53 -1683 -201 -2505 -506 -927 -345 -1848 -910
-2580 -1585 -1446 -1334 -2337 -3090 -2550 -5028 -41 -382 -56 -911 -36 -1285
88 -1599 627 -3091 1578 -4365 982 -1316 2361 -2307 3914 -2813 652 -212 1307
-337 2004 -382 206 -13 764 -13 970 0 1893 121 3615 867 5000 2166 932 875
1664 2010 2075 3219 213 628 343 1246 405 1935 22 239 31 823 16 1080 -58
1026 -294 1983 -720 2924 -317 699 -775 1403 -1290 1981 -541 607 -1172 1129
-1871 1547 -489 293 -874 468 -1505 684 -651 223 -1330 361 -2035 414 -147 11
-751 21 -870 14z m-4798 -6867 c74 -36 134 -96 166 -165 23 -48 27 -71 27
-142 0 -94 -16 -136 -81 -216 l-33 -41 51 -53 c73 -76 102 -145 102 -245 -1
-150 -77 -271 -212 -337 l-67 -33 -435 -3 c-403 -3 -435 -2 -447 14 -17 23
-19 1204 -2 1235 10 19 21 20 442 17 l432 -3 57 -28z m1615 11 c27 -29 603
-1203 603 -1229 0 -18 -6 -20 -87 -17 l-88 3 -75 152 -75 153 -298 0 c-245 0
-299 2 -303 14 -6 15 51 136 70 148 6 4 109 8 229 8 124 0 217 4 215 9 -26 70
-285 620 -291 618 -5 -1 -129 -250 -276 -552 l-267 -550 -79 0 c-65 0 -80 3
-83 16 -4 20 572 1196 601 1227 18 19 30 22 102 22 72 0 84 -3 102 -22z m1314
-208 c98 -124 178 -231 178 -239 1 -20 -89 -123 -105 -119 -18 4 -464 558
-464 575 0 11 24 13 107 11 l107 -3 177 -225z m899 218 c0 -7 -124 -168 -275
-357 l-275 -344 0 -266 c0 -194 -3 -270 -12 -279 -7 -7 -41 -12 -85 -12 -61 0
-74 3 -83 19 -15 28 -14 526 2 554 12 24 477 637 511 675 19 20 30 22 119 22
72 0 98 -3 98 -12z m1522 -20 c117 -55 202 -165 203 -263 l0 -50 -54 -3 c-80
-5 -97 2 -105 40 -10 49 -46 96 -92 118 -37 18 -61 20 -310 20 -260 0 -271 -1
-314 -22 -65 -33 -92 -84 -87 -165 3 -70 22 -103 77 -140 32 -22 40 -23 279
-23 135 0 274 -4 308 -9 183 -27 311 -162 321 -340 10 -181 -91 -330 -260
-382 -61 -19 -87 -20 -360 -17 l-293 3 -66 32 c-124 61 -215 189 -207 290 l3
38 80 0 79 0 6 -30 c15 -69 59 -123 122 -150 31 -12 85 -15 295 -15 151 0 274
5 296 11 68 19 137 112 137 185 0 38 -21 94 -47 124 -53 63 -59 65 -383 70
-294 5 -295 5 -352 32 -109 51 -179 146 -201 272 -28 164 81 340 242 391 36
11 106 14 336 12 l290 -2 57 -27z m1277 19 c7 -10 12 -174 13 -548 l3 -534
414 -3 c286 -1 418 -6 428 -13 17 -15 18 -130 1 -147 -9 -9 -137 -12 -514 -12
-433 0 -503 2 -514 15 -9 11 -13 156 -14 625 -1 533 1 612 14 620 24 15 156
12 169 -3z m2192 3 c11 -6 48 -70 83 -143 35 -73 170 -348 300 -611 130 -264
235 -485 232 -493 -4 -11 -26 -13 -93 -11 l-88 3 -75 153 -75 152 -298 0
c-245 0 -299 2 -303 14 -3 8 11 46 30 85 l36 71 225 0 c124 0 225 2 225 3 0 9
-282 613 -290 621 -6 6 -13 0 -19 -15 -21 -53 -497 -1036 -517 -1066 -13 -21
-22 -23 -94 -23 -71 0 -80 2 -80 18 0 11 62 147 139 303 76 156 209 428 295
604 86 176 164 326 173 333 21 15 166 16 194 2z m2214 -20 c170 -83 245 -284
167 -443 -17 -34 -44 -75 -61 -91 l-30 -28 49 -49 c26 -26 61 -74 77 -106 25
-51 28 -69 28 -153 0 -85 -3 -101 -29 -155 -38 -76 -105 -143 -181 -181 l-60
-29 -440 -3 c-407 -3 -441 -2 -452 15 -17 22 -19 1203 -2 1234 10 19 21 20
447 17 l437 -3 50 -25z m-6834 -1253 c47 -36 52 -128 13 -248 -32 -94 -101
-204 -129 -204 -34 0 -28 33 14 82 61 69 104 163 109 238 5 74 -8 105 -44 105
-85 0 -189 -131 -287 -361 -52 -121 -79 -230 -80 -326 -2 -103 17 -136 82
-141 80 -6 187 71 349 252 20 22 42 36 57 36 13 0 27 4 30 10 3 5 23 14 45 20
31 8 47 7 74 -4 52 -22 70 -56 63 -121 -6 -62 -1 -65 49 -34 36 22 77 77 106
141 19 40 71 84 115 97 51 15 83 -20 47 -50 -12 -10 -20 -10 -35 -1 -17 11
-24 9 -50 -18 -35 -35 -34 -46 17 -121 23 -34 34 -63 34 -88 l1 -36 54 58 c29
32 70 89 90 128 38 72 58 84 89 54 14 -14 9 -28 -44 -133 -66 -130 -80 -172
-58 -172 23 0 140 103 195 171 74 93 107 121 134 117 34 -4 35 -33 4 -102 -14
-32 -24 -60 -22 -63 3 -2 23 19 46 46 79 94 174 136 215 95 9 -8 16 -17 16
-20 0 -2 -19 -41 -41 -86 -23 -46 -47 -99 -55 -120 -11 -33 -11 -38 2 -38 21
0 136 112 182 175 55 77 94 115 118 115 31 0 48 -24 35 -48 -6 -10 -20 -43
-31 -73 l-22 -54 75 72 c94 92 146 113 192 79 18 -13 17 -18 -33 -123 -50
-106 -61 -143 -44 -143 18 0 99 72 144 127 25 32 66 83 90 113 47 58 84 74
107 46 11 -13 5 -26 -37 -83 -82 -113 -125 -213 -89 -213 20 0 98 53 134 91
17 19 60 75 95 124 56 79 67 90 93 90 42 0 45 -34 7 -83 -16 -20 -52 -72 -81
-116 -52 -80 -66 -124 -35 -112 9 3 20 6 24 6 32 0 227 222 244 278 27 87 186
163 186 88 0 -27 -21 -39 -55 -30 -28 7 -65 -25 -65 -56 0 -11 16 -43 35 -72
19 -28 38 -62 41 -77 3 -14 7 -30 8 -35 1 -5 26 19 56 55 53 64 80 83 80 56 0
-35 -162 -207 -225 -239 -45 -23 -96 -28 -134 -15 -44 15 -49 31 -16 53 20 13
29 14 38 5 19 -19 72 -13 94 12 37 40 38 63 2 123 -18 30 -36 54 -39 54 -3 0
-34 -36 -69 -80 -96 -120 -162 -170 -225 -170 -38 0 -66 21 -66 51 0 25 -1 24
-57 -11 -89 -57 -164 -29 -149 54 l7 34 -61 -58 c-66 -64 -88 -75 -126 -66
-50 13 -42 89 22 225 19 41 33 76 31 78 -2 2 -22 -10 -44 -26 -46 -34 -113
-110 -175 -201 -45 -66 -82 -88 -94 -56 -3 8 11 58 31 111 21 53 35 98 33 101
-3 2 -24 -20 -47 -49 -22 -30 -70 -81 -105 -115 -94 -90 -148 -95 -154 -14 -3
42 31 145 70 210 19 30 19 32 1 32 -25 0 -148 -130 -207 -218 -37 -56 -53 -72
-71 -72 -35 0 -38 13 -14 72 52 132 69 182 56 168 -7 -8 -41 -48 -76 -87 -73
-85 -173 -163 -207 -163 -14 0 -30 10 -40 25 -15 24 -15 40 3 100 3 12 -17 -2
-57 -37 -76 -69 -114 -88 -177 -88 -57 0 -76 10 -71 36 3 17 12 19 64 16 53
-3 62 0 84 23 34 36 32 81 -8 136 l-33 45 -47 -47 c-31 -31 -62 -51 -92 -60
-25 -7 -49 -19 -54 -27 -26 -43 -83 -93 -122 -108 -90 -34 -164 17 -164 113
l0 44 -68 -55 c-137 -111 -235 -141 -309 -96 -50 30 -68 73 -67 160 4 195 146
522 286 657 23 23 57 49 73 57 36 19 94 20 116 3z m4727 -67 c1 -19 -13 -143
-32 -275 -19 -132 -34 -241 -32 -242 5 -6 173 295 189 342 10 27 26 58 34 68
16 17 58 23 67 9 2 -4 -4 -107 -14 -227 -24 -278 -26 -475 -5 -475 31 0 51 48
135 325 55 183 129 351 177 402 52 54 108 77 193 77 69 1 75 -1 75 -19 0 -18
-6 -20 -61 -17 -139 8 -231 -85 -307 -308 -14 -41 -44 -136 -66 -211 -22 -75
-49 -157 -60 -181 -28 -65 -77 -118 -110 -118 -47 0 -61 19 -67 90 -6 59 9
361 22 470 l6 45 -47 -74 c-107 -169 -185 -345 -185 -417 0 -27 -15 -30 -55
-12 -17 8 -25 19 -25 37 0 70 101 735 112 743 7 4 22 7 33 6 15 -2 21 -12 23
-38z m-923 0 c10 -16 -14 -40 -40 -40 -30 0 -37 -10 -20 -27 8 -8 15 -27 15
-41 0 -38 -59 -158 -131 -265 -48 -72 -139 -258 -139 -285 0 -2 19 17 42 43
91 104 186 157 241 136 13 -5 27 -16 30 -24 3 -8 -13 -49 -34 -91 -51 -97 -92
-206 -79 -206 31 0 170 163 233 272 70 121 211 152 252 55 39 -95 -66 -197
-173 -167 -53 14 -52 15 -52 -44 0 -163 148 -136 291 53 50 66 71 80 77 51 5
-26 -123 -177 -184 -217 -46 -31 -67 -38 -118 -41 -55 -4 -65 -1 -93 22 -24
20 -35 40 -43 81 l-11 55 -87 -90 c-97 -100 -127 -112 -158 -64 -16 23 -16 29
-1 82 9 32 34 97 57 146 22 49 39 91 37 93 -3 2 -31 -17 -64 -41 -60 -45 -148
-147 -209 -242 -37 -58 -54 -68 -81 -49 -17 13 -17 16 5 82 32 91 203 494 258
607 24 49 43 91 41 92 -1 1 -97 5 -212 9 -184 7 -218 5 -270 -10 -81 -23 -129
-49 -183 -98 -54 -50 -81 -106 -82 -168 0 -106 105 -131 168 -39 19 28 23 44
19 82 -5 54 4 74 28 64 14 -5 17 -16 13 -64 -8 -108 -63 -173 -147 -174 -81
-1 -128 62 -116 157 14 119 111 217 266 270 83 29 87 29 299 27 118 0 233 3
255 7 58 12 93 13 100 1z m-317 -103 c2 -10 -15 -46 -37 -79 -49 -74 -84 -178
-111 -336 -28 -159 -54 -239 -99 -298 -43 -57 -122 -105 -166 -102 -47 4 -44
32 5 47 93 28 145 113 180 296 54 284 83 370 151 457 34 42 71 49 77 15z
m2520 -101 c2 -10 -6 -36 -17 -57 l-22 -38 28 -3 c17 -2 29 -10 31 -20 3 -15
-4 -18 -37 -18 l-41 0 -44 -87 c-92 -185 -134 -353 -86 -353 60 0 232 197 297
342 41 90 42 93 21 98 -37 9 -32 29 9 36 35 5 42 12 68 62 32 62 65 79 84 44
7 -14 4 -28 -14 -60 l-23 -41 26 -3 c16 -2 28 -10 30 -20 3 -15 -4 -18 -38
-18 l-41 0 -45 -96 c-57 -121 -104 -261 -104 -308 0 -28 4 -36 18 -36 44 0
186 139 239 232 55 98 139 151 205 129 38 -13 68 -55 68 -98 0 -35 -31 -86
-65 -109 -27 -18 -94 -24 -136 -12 -24 7 -27 5 -32 -27 -7 -43 7 -93 30 -111
24 -18 68 -17 107 1 39 19 129 109 189 189 l44 58 -24 24 c-12 13 -23 30 -23
39 0 54 82 119 142 113 29 -3 33 -7 36 -36 2 -21 -4 -43 -18 -62 -20 -29 -20
-30 -3 -37 32 -11 53 -36 53 -62 0 -29 -17 -60 -84 -151 -52 -70 -59 -95 -23
-84 12 3 33 15 47 24 29 21 123 120 162 170 21 28 29 32 39 23 16 -16 -22 -72
-113 -164 -96 -97 -150 -120 -207 -89 -42 22 -25 72 60 189 27 37 49 73 49 79
0 7 -13 12 -29 12 -24 0 -37 -12 -89 -82 -69 -96 -142 -167 -200 -197 -48 -25
-120 -27 -161 -6 -32 16 -61 77 -61 127 l0 31 -69 -67 c-98 -94 -160 -117
-202 -75 -19 19 -21 30 -16 85 l5 64 -72 -68 c-102 -97 -157 -119 -205 -86
-22 16 -23 22 -19 91 l5 75 -71 -70 c-87 -84 -126 -112 -160 -112 -37 0 -59
38 -50 87 l7 38 -49 -46 c-85 -79 -122 -94 -181 -75 -52 16 -41 68 38 177 32
45 59 88 59 96 0 23 -49 15 -73 -12 -16 -18 -26 -22 -37 -16 -12 8 -11 13 5
31 18 20 18 21 -3 36 -67 47 22 173 113 162 45 -5 54 -31 27 -81 -24 -44 -25
-43 24 -73 29 -17 20 -70 -23 -131 -83 -120 -93 -137 -84 -146 32 -32 212 149
272 273 23 48 33 60 53 60 13 0 29 -7 36 -15 11 -14 3 -36 -48 -143 -57 -117
-73 -162 -55 -162 3 0 31 19 61 43 89 68 169 169 218 275 24 52 44 98 44 103
0 5 -9 9 -20 9 -25 0 -27 30 -2 31 9 1 24 2 32 3 8 0 31 29 50 64 30 53 39 62
60 60 15 -2 26 -10 28 -22z m-5144 -129 c11 -8 17 -23 14 -38 -2 -19 -9 -24
-33 -24 -24 0 -31 5 -33 23 -3 22 13 52 27 52 4 0 15 -6 25 -13z m4838 -12
c10 -22 9 -29 -10 -48 -18 -17 -26 -19 -40 -11 -21 14 -28 50 -12 70 19 22 49
17 62 -11z"/>
<path d="M2140 8516 l0 -466 313 0 c187 0 327 4 350 11 138 38 190 215 100
337 -45 60 -57 62 -327 62 -135 0 -256 4 -270 10 -24 9 -26 14 -26 74 0 40 5
68 13 74 8 7 104 12 264 14 237 3 253 4 280 24 101 75 99 223 -4 294 l-36 25
-329 3 -328 3 0 -465z"/>
<path d="M13172 8518 l3 -463 295 -3 c347 -3 383 2 446 60 52 48 68 91 62 169
-3 45 -11 69 -34 101 -53 75 -65 78 -347 78 -152 0 -256 4 -268 10 -16 9 -19
22 -19 74 0 40 5 68 13 74 8 7 104 12 264 14 237 3 253 4 280 24 93 69 106
191 28 269 -19 18 -52 39 -72 44 -23 7 -162 11 -346 11 l-307 0 2 -462z"/>
<path d="M7228 7290 c-9 -6 -24 -24 -32 -41 -12 -24 -13 -34 -3 -50 14 -23 84
-59 114 -59 39 0 58 94 27 138 -16 24 -74 30 -106 12z"/>
<path d="M7131 7145 c-19 -76 1 -125 53 -125 36 0 75 23 106 63 l21 27 -21 0
c-31 0 -92 28 -121 56 l-26 25 -12 -46z"/>
<path d="M11138 7315 c-14 -8 -36 -31 -49 -51 -22 -36 -22 -37 -4 -50 49 -36
145 7 145 65 0 50 -38 65 -92 36z"/>
<path d="M12368 7394 c-31 -16 -37 -51 -11 -61 11 -4 25 4 45 27 15 19 28 38
28 42 0 13 -33 9 -62 -8z"/>
<path d="M13883 7390 c-38 -22 -43 -46 -13 -55 24 -8 38 2 63 44 17 30 17 31
0 31 -10 0 -33 -9 -50 -20z"/>
<path d="M13583 7315 c-17 -7 -43 -30 -57 -51 l-26 -38 23 -13 c12 -7 36 -12
54 -13 61 0 114 77 78 114 -20 19 -30 20 -72 1z"/>
</g>
</svg>
